<?xml version="1.0" encoding="utf-8"?><svg xmlns="http://www.w3.org/2000/svg"
  xmlns:xlink="http://www.w3.org/1999/xlink">
  <symbol fill="none" viewBox="0 0 24 24" id="cart" xmlns="http://www.w3.org/2000/svg">
    <g clip-path="url(#aa)" stroke="currentColor" stroke-width="2" stroke-linecap="round" stroke-linejoin="round">
      <path
        d="M9.25 21.167a.917.917 0 1 0 0-1.834.917.917 0 0 0 0 1.834ZM19.333 21.167a.917.917 0 1 0 0-1.834.917.917 0 0 0 0 1.834ZM1.917 1.917h3.666L8.04 14.19a1.833 1.833 0 0 0 1.833 1.476h8.91a1.833 1.833 0 0 0 1.834-1.476L22.083 6.5H6.5" />
    </g>
    <defs>
      <clipPath id="aa">
        <path fill="currentColor" transform="translate(1 1)" d="M0 0h22v22H0z" />
      </clipPath>
    </defs>
  </symbol>
  <symbol fill="none" viewBox="0 0 24 24" id="facebook" xmlns="http://www.w3.org/2000/svg">
    <g clip-path="url(#ba)">
      <path
        d="M15.402 21v-6.966h2.333l.349-2.708h-2.682V9.598c0-.784.218-1.319 1.342-1.319h1.434V5.857a19.188 19.188 0 0 0-2.09-.107c-2.067 0-3.482 1.262-3.482 3.58v1.996h-2.338v2.708h2.338V21H4a1 1 0 0 1-1-1V4a1 1 0 0 1 1-1h16a1 1 0 0 1 1 1v16a1 1 0 0 1-1 1h-4.598Z"
        fill="currentColor" />
    </g>
    <defs>
      <clipPath id="ba">
        <path fill="currentColor" d="M0 0h24v24H0z" />
      </clipPath>
    </defs>
  </symbol>
  <symbol fill="none" viewBox="0 0 24 24" id="instagram" xmlns="http://www.w3.org/2000/svg">
    <g clip-path="url(#ca)">
      <path
        d="M12 2c2.717 0 3.056.01 4.122.06 1.065.05 1.79.217 2.428.465.66.254 1.216.598 1.772 1.153.509.5.902 1.105 1.153 1.772.247.637.415 1.363.465 2.428.047 1.066.06 1.405.06 4.122 0 2.717-.01 3.056-.06 4.122-.05 1.065-.218 1.79-.465 2.428a4.883 4.883 0 0 1-1.153 1.772c-.5.508-1.105.902-1.772 1.153-.637.247-1.363.415-2.428.465-1.066.047-1.405.06-4.122.06-2.717 0-3.056-.01-4.122-.06-1.065-.05-1.79-.218-2.428-.465a4.89 4.89 0 0 1-1.772-1.153 4.904 4.904 0 0 1-1.153-1.772c-.248-.637-.415-1.363-.465-2.428C2.013 15.056 2 14.717 2 12c0-2.717.01-3.056.06-4.122.05-1.066.217-1.79.465-2.428a4.88 4.88 0 0 1 1.153-1.772A4.897 4.897 0 0 1 5.45 2.525c.638-.248 1.362-.415 2.428-.465C8.944 2.013 9.283 2 12 2Zm0 5a5 5 0 1 0 0 10 5 5 0 0 0 0-10Zm6.5-.25a1.25 1.25 0 1 0-2.5 0 1.25 1.25 0 0 0 2.5 0ZM12 9a3 3 0 1 1 0 6 3 3 0 0 1 0-6Z"
        fill="currentColor" />
    </g>
    <defs>
      <clipPath id="ca">
        <path fill="currentColor" d="M0 0h24v24H0z" />
      </clipPath>
    </defs>
  </symbol>
  <symbol fill="none" viewBox="0 0 24 24" id="youtube" xmlns="http://www.w3.org/2000/svg">
    <g clip-path="url(#da)">
      <path
        d="M21.543 6.498C22 8.28 22 12 22 12s0 3.72-.457 5.502c-.254.985-.997 1.76-1.938 2.022C17.896 20 12 20 12 20s-5.893 0-7.605-.476c-.945-.266-1.687-1.04-1.938-2.022C2 15.72 2 12 2 12s0-3.72.457-5.502c.254-.985.997-1.76 1.938-2.022C6.107 4 12 4 12 4s5.896 0 7.605.476c.945.266 1.687 1.04 1.938 2.022ZM10 15.5l6-3.5-6-3.5v7Z"
        fill="currentColor" />
    </g>
    <defs>
      <clipPath id="da">
        <path fill="currentColor" d="M0 0h24v24H0z" />
      </clipPath>
    </defs>
  </symbol>
</svg>